<svg id="Layer_1" xmlns="http://www.w3.org/2000/svg" viewBox="0 0 827 168"><style>.st0{fill:#29C0D1;}</style><path class="st0" d="M360.4 137.5h-18.1V43.1h18.1v50L375 76.3h23.2l-25.4 27 30.5 34.2h-22.4l-20.4-24.2v24.2zM427.6 137.5h-18.2V76.3h18.2v8.9C430.9 79 438.1 75 445.3 75c13.7 0 22.4 8.5 22.4 25.9v36.5h-18.2v-32.6c0-8.1-4.5-12.2-10.6-12.2-6.4 0-11.3 3.1-11.3 12.4v32.5zM488.1 42.3c6 0 10.9 4.8 10.9 11s-4.9 11.1-10.9 11.1-11.2-4.9-11.2-11.1c0-6.3 5.1-11 11.2-11zm9 95.2H479V76.3h18.1v61.2zM617.6 42.3c6 0 10.9 4.8 10.9 11s-4.9 11.1-10.9 11.1-11.2-4.9-11.2-11.1c0-6.3 5.1-11 11.2-11zm9 95.2h-18.1V76.3h18.1v61.2zM657.5 137.5h-18.2V76.3h18.2v8.9C660.8 79.1 668 75 675.2 75c13.7 0 22.4 8.5 22.4 25.9v36.5h-18.2v-32.6c0-8.1-4.5-12.2-10.6-12.2-6.4 0-11.3 3.1-11.3 12.4v32.5zM736.8 151.6c13.9 0 17.7-9.6 16.9-21.7-2.9 5.6-10.7 8.9-18.3 8.9-15.7 0-30.5-12.4-30.5-31.7 0-19.6 14.8-32.1 30.5-32.1 7.6 0 15.3 3.3 18.3 8.9v-7.6h17.7V129c0 26.3-12.8 39-34.6 39-13.5 0-25-7.6-30.1-19 4.6-2.2 10.1-5 14.7-7.2 2.1 5.6 9.3 9.8 15.4 9.8zm1.7-59.3c-7.7 0-14.7 5.8-14.7 14.4 0 9.2 6.9 14.9 14.7 14.9 7.5 0 14.8-6 14.8-14.9 0-9.2-7.2-14.4-14.8-14.4zM821.4 105.1h-33.9c-3.1 0-5.6 2.5-5.6 5.6 0 3.1 2.5 5.6 5.6 5.6h33.9c3.1 0 5.6-2.5 5.6-5.6 0-3.1-2.5-5.6-5.6-5.6zM39.5 105.1H5.6c-3.1 0-5.6 2.5-5.6 5.6 0 3.1 2.5 5.6 5.6 5.6h33.9c3.1 0 5.6-2.5 5.6-5.6 0-3.1-2.5-5.6-5.6-5.6zM323.2 102.2c-1.4.6-2.5 2-3.5 3.3-.3.3-7.3 9.3-11.8 13.2-4.1 3.6-11.5 7.4-18.5 7.3-14.7-.2-19.6-11.7-19.6-11.7s15.7-2.9 25.2-13.7c8.3-9.4 8.6-19 6.4-25-2.7-7.3-9.6-12.1-17.6-12-11 .1-19.2 8.4-23.7 17.4-2.7 5.4-4.4 11.7-4.9 18.1-7.5-6.5-9.6-20.8-10.5-24.5-.8-3.7-1.4-5-2.3-6.1-1.6-1.8-4.1-2.4-5.8-2.1-6.8.8-6.2 7.7-6 11.9.1 1.4.1 2.8.1 4.1-.9 12.4-5.4 25.3-13.1 36.5-3.1 4.5-4.8 6-5.2 6-.4 0-2.6-1.5-5-4.8-7.1-9.8-11.9-22.4-13.5-34.5-.4-2.9-.5-5.8-.3-9.1.2-2.9.2-5.8-1.7-8-1.2-1.4-3.1-2.2-5-2.2-2.9 0-5.5 1.7-6.4 4.2-.3.5-.7 2.9-.8 4.3-.3 4.6-1.7 9.6-3.9 12.4-4.4 5.9-11.5 8-11.5 8s-2.5-15.7-14-25.2c-4.1-3.4-8.2-4.6-12.6-4.8-7.2-.2-15.8 5.9-13.9 17.8.6 3.9 2.3 8.2 4.9 12 7.5 11.1 19.4 13.7 23.1 14.3 0 1.4-1.4 6.8-5.8 11-2.7 2.6-7.4 5.3-13 5.3-4.6 0-8.5-2.3-11.3-5-3.4-3.2-6.2-8.4-6.9-12.3-.2-1.2-1.2-7.5 2-12.3 1.3-1.9 1.4-4.1.4-5.9-1.2-2.2-3.7-3.6-6.3-3.6-2.2 0-3.9 1.2-5.4 3-2 2.4-3.4 6-3.9 12.4-.7 9-12.5 24.4-21 24.1-6.8-.2-10.5-12.6-12.1-20.9 0 0 18.2-30.5 22.5-58.4 4.2-27.1-.2-36.7-3.4-41.3C85.2 2 81.4-.1 77.2 0c-3.6.1-6.4 1.2-9.2 3.8-5.2 4.7-9.4 15.3-12.5 33.9-2 12.3-2.7 25.4-2.4 40.1.1 6.6.6 20.8 4.8 37 4.2 16 12.4 23.9 22.2 23.9 5.8 0 11.8-3.8 15.4-6.7 6.3-5 10.1-10.5 10.1-10.5s7 17 26.8 17.2c16 .2 30.1-12.7 32.3-29.5v-.2l.2-.1c10.8-2.4 17.7-9.8 17.7-9.8s3.8 14.4 11.4 25c4.2 5.9 10.6 14.6 18 14.6 4.4 0 9.5-3.6 16.9-13.7 7.8-10.6 12.2-26.4 12.2-26.4s3.7 10.7 15.2 15.4c1.9 7 5.7 13.4 12 18 5.8 4.3 13.1 6.6 20.7 6.6 11.5 0 21.2-5.6 28-11.7 7.4-6.6 14-15.4 14.2-15.7 1.6-2.4.8-6.1-1.3-8-1.4-1.4-4-2.2-6.7-1zM143.1 90.7c-6.5-6.3-6.7-9.7-6.6-10.5.2-1.8 1.6-2.1 2.1-2.1 2.1 0 4.7 4 6.1 6.1 3.4 4.7 5.8 11.2 5.8 11.2s-4.1-1.5-7.4-4.7zm-77.2-8s-.1-24 1.1-35.4c1.1-10 2.4-21.3 6.8-30.9.5-1.1 1.8-3.9 2.9-4 1-.1 1.9 2 2.5 4.7 2 8.9 1.1 19.2-1.7 32.8-3.3 14.9-11.6 32.8-11.6 32.8zm201.9 19.6s.1-8 3.6-15.1c2.8-5.7 5.9-9.2 9.7-10.5 2.9-1 5.8-.2 7.4 1.8 1.2 1.5 1.6 3.5 1.1 5.7-1.2 5.2-4.6 9-7.4 11.4-6.6 5.4-14.4 6.7-14.4 6.7zM535.5 76.3V55.6l-18.3 5.9v14.8h-11.1v16h11V118c0 6.4 1.9 11.5 5.7 15.3 3.8 3.7 9 5.6 15.5 5.6 4.1 0 7.7-.6 9.8-1.6v-15.7c-1.7.3-3.3.5-4.7.5-5.2 0-7.9-2.6-7.9-7.6v-22H548v-16l-12.5-.2zM583.5 76.3V55.6l-18.3 5.9v14.8h-11.1v16h11V118c0 6.4 1.9 11.5 5.7 15.3 3.8 3.7 9 5.6 15.5 5.6 4.1 0 7.7-.6 9.8-1.6v-15.7c-1.7.3-3.3.5-4.7.5-5.2 0-7.9-2.6-7.9-7.6v-22h12.6v-16l-12.6-.2z"/></svg>