<svg width="426" height="292" viewBox="0 0 426 292" xmlns="http://www.w3.org/2000/svg"><title>LoveKnitting-Logo-Primary-Blue-RGB</title><g fill="#29C0D1" fill-rule="evenodd"><path d="M419.055 116.56h-37.338c-3.392 0-6.145 2.758-6.145 6.145 0 3.388 2.753 6.147 6.145 6.147h37.338c3.385 0 6.142-2.76 6.142-6.147 0-3.387-2.757-6.146-6.142-6.146M43.48 116.56H6.15c-3.39 0-6.148 2.755-6.148 6.145 0 3.388 2.757 6.147 6.148 6.147H43.48c3.392 0 6.148-2.76 6.148-6.147 0-3.39-2.756-6.146-6.147-6.146M294.924 113.392s.083-8.84 3.933-16.62c3.095-6.263 6.497-10.085 10.718-11.504 3.202-1.078 6.43-.27 8.198 1.97 1.316 1.66 1.733 3.88 1.176 6.248-1.353 5.714-5.095 9.913-8.18 12.508-7.187 6.042-15.846 7.398-15.846 7.398zM72.594 91.814s-.13-26.462 1.216-38.934c1.192-11.015 2.606-23.466 7.452-34.004.568-1.233 1.942-4.27 3.175-4.43 1.078-.14 2.05 2.24 2.708 5.185 2.147 9.763 1.244 21.14-1.91 36.058-3.484 16.51-12.64 36.126-12.64 36.126zm84.952 8.81c-7.14-6.89-7.354-10.7-7.285-11.565.18-1.963 1.752-2.34 2.33-2.34 2.32 0 5.136 4.377 6.758 6.668 3.71 5.214 6.348 12.31 6.348 12.31s-4.466-1.532-8.15-5.075zm198.406 12.736c-1.592.706-2.705 2.198-3.81 3.604-.293.356-8.072 10.27-13.01 14.51-4.568 3.92-12.62 8.13-20.382 8.02-16.24-.228-21.545-12.867-21.545-12.867s17.31-3.225 27.706-15.07c9.127-10.39 9.514-20.857 7.008-27.535-3.017-8.02-10.58-13.277-19.44-13.198-12.12.12-21.146 9.198-26.072 19.168-2.965 5.962-4.865 12.88-5.412 19.914-8.28-7.173-10.61-22.89-11.516-27.018-.906-4.11-1.5-5.513-2.586-6.72-1.743-1.93-4.47-2.615-6.442-2.365-7.43.913-6.875 8.438-6.636 13.056.088 1.592.16 3.104.06 4.467-.967 13.693-5.962 27.855-14.38 40.227-3.387 4.994-5.335 6.588-5.745 6.62-.41.016-2.856-1.654-5.473-5.278-7.822-10.83-13.135-24.612-14.84-37.937-.397-3.155-.507-6.42-.318-9.993.178-3.142.178-6.42-1.873-8.756-1.355-1.544-3.364-2.418-5.552-2.418-3.206 0-6.04 1.85-7.066 4.606-.28.54-.737 3.185-.85 4.688-.345 5.055-1.92 10.608-4.246 13.696-4.857 6.48-12.62 8.857-12.62 8.857s-2.777-17.26-15.425-27.788c-4.49-3.744-9.08-5.095-13.925-5.235-7.98-.247-17.395 6.468-15.256 19.556.695 4.34 2.565 9.036 5.39 13.166 8.282 12.163 21.38 15.066 25.442 15.763-.042 1.563-1.554 7.444-6.37 12.092-2.927 2.825-8.105 5.85-14.312 5.85-5.025 0-9.404-2.525-12.48-5.46-3.722-3.546-6.87-9.216-7.565-13.566-.21-1.316-1.364-8.2 2.17-13.496 1.434-2.12 1.515-4.468.398-6.508-1.325-2.4-4.122-4.012-6.977-4.012-2.436 0-4.26 1.274-5.9 3.354-2.15 2.686-3.792 6.61-4.288 13.656-.787 9.892-13.765 26.83-23.14 26.533-7.443-.243-11.584-13.907-13.294-22.963 0-.027 20.06-33.518 24.83-64.28 4.627-29.825-.21-40.367-3.753-45.44C93.79 3.03 89.635.74 85.035.83c-3.936.09-6.994 1.374-10.14 4.23-5.742 5.214-10.378 16.82-13.753 37.32-2.218 13.485-3.017 27.927-2.68 44.106.162 7.277.647 22.872 5.316 40.745C68.368 144.83 77.45 153.5 88.27 153.5c6.378 0 12.967-4.172 17.008-7.375 6.965-5.525 11.146-11.577 11.146-11.577s7.723 18.71 29.56 18.91c17.674.18 33.2-13.953 35.587-32.464l.02-.23.238-.06c11.865-2.687 19.52-10.738 19.52-10.738s4.227 15.814 12.588 27.498c4.635 6.48 11.702 16.122 19.804 16.035 4.876-.05 10.44-4.014 18.59-15.07 8.602-11.637 13.427-29.02 13.427-29.02s4.09 11.773 16.71 16.997c2.086 7.695 6.33 14.71 13.215 19.796 6.37 4.707 14.47 7.296 22.81 7.296 12.66 0 23.387-6.192 30.89-12.93 8.14-7.287 15.44-16.98 15.595-17.288 1.733-2.693.83-6.707-1.422-8.755-1.75-1.594-4.627-2.5-7.603-1.167zM23.848 262.6H6.438v-90.967h17.41v48.203l14.006-16.154h22.334l-24.477 25.99 29.397 32.93H43.53L23.85 239.26v23.34M88.597 262.6H71.06v-58.918h17.537v8.58c3.153-5.933 10.094-9.845 17.035-9.845 13.247 0 21.578 8.203 21.578 24.985v35.2h-17.54v-31.413c0-7.827-4.292-11.735-10.22-11.735-6.183 0-10.853 3.026-10.853 11.986v31.16M138.176 262.6h17.41v-58.918h-17.41v58.92zm8.703-91.696c5.818 0 10.522 4.575 10.522 10.578 0 6.014-4.704 10.715-10.523 10.715-5.823 0-10.774-4.7-10.774-10.715 0-6.003 4.95-10.578 10.773-10.578zM262.972 262.6h17.408v-58.918h-17.408v58.92zm8.7-91.696c5.82 0 10.526 4.575 10.526 10.578 0 6.014-4.707 10.715-10.525 10.715-5.817 0-10.768-4.7-10.768-10.715 0-6.003 4.95-10.578 10.768-10.578zM310.18 262.6h-17.536v-58.918h17.537v8.58c3.157-5.933 10.096-9.845 17.034-9.845 13.248 0 21.572 8.203 21.572 24.985v35.2H331.25v-31.413c0-7.827-4.288-11.735-10.218-11.735-6.18 0-10.85 3.026-10.85 11.986v31.16M388.228 219.076c-7.448 0-14.135 5.55-14.135 13.88 0 8.827 6.687 14.377 14.135 14.377 7.19 0 14.255-5.8 14.255-14.376 0-8.832-6.94-13.88-14.255-13.88zm-1.645 57.156c13.377 0 17.035-9.21 16.277-20.947-2.775 5.426-10.345 8.58-17.662 8.58-15.142 0-29.402-11.982-29.402-30.533 0-18.925 14.26-30.915 29.402-30.915 7.317 0 14.762 3.155 17.662 8.58v-7.315h17.034v50.72c0 25.362-12.364 37.598-33.31 37.598-12.997 0-24.097-7.317-29.02-18.294 4.417-2.148 9.716-4.795 14.132-6.935 2.02 5.422 8.96 9.462 14.887 9.462zM192.592 203.678v-19.934l-17.666 5.676v14.258h-10.728v15.455h10.624v24.683c0 6.18 1.845 11.12 5.46 14.695 3.63 3.57 8.673 5.382 14.98 5.382 3.916 0 7.39-.62 9.446-1.577v-15.14c-1.608.336-3.136.507-4.496.507-4.97 0-7.6-2.544-7.6-7.354v-21.195h12.096v-15.455h-12.116M238.823 203.678v-19.934l-17.668 5.676v14.258h-10.727v15.455h10.624v24.683c0 6.18 1.845 11.12 5.46 14.695 3.628 3.57 8.673 5.382 14.98 5.382 3.917 0 7.39-.62 9.446-1.577v-15.14c-1.607.336-3.136.507-4.496.507-4.97 0-7.6-2.544-7.6-7.354v-21.195h12.096v-15.455h-12.115"/></g></svg>